<svg width="1439" height="320" viewBox="0 0 1439 320" fill="none" xmlns="http://www.w3.org/2000/svg">
<path d="M356.571 161.199L388 213.955L326.54 320H293.539H260.537L200.431 213.955L232.212 161.199H294.391H356.571Z" fill="url(#paint0_linear_0_1)"/>
<path d="M322.284 103.647H200.146L132.406 211.823L98.5365 265.912L64.6667 320L0 213.955L130.669 0H260.537L322.284 103.647Z" fill="url(#paint1_linear_0_1)"/>
<path d="M167.317 268.925L136.548 320L98.5365 265.912L132.406 211.823L167.317 268.925Z" fill="url(#paint2_linear_0_1)"/>
<path d="M198.543 320H136.548L167.317 268.925L198.543 320Z" fill="url(#paint3_linear_0_1)"/>
<path d="M136.548 320H64.6667L98.5365 265.912L136.548 320Z" fill="url(#paint4_linear_0_1)"/>
<path d="M628.4 113.699V263.999H592.4V188.999C592.4 176.999 588.2 166.799 579.8 158.399C571.4 149.999 561.2 145.799 549.2 145.799C543.4 145.799 537.8 146.899 532.4 149.099C527.2 151.299 522.6 154.399 518.6 158.399C510.2 166.799 506 176.999 506 188.999C506 200.799 510.2 210.899 518.6 219.299C522.6 223.499 527.2 226.699 532.4 228.899C537.8 230.899 543.4 231.899 549.2 231.899C555.2 231.899 560.6 230.899 565.4 228.899L578.3 260.999C569.1 265.599 558.4 267.899 546.2 267.899C535.2 267.899 525 265.899 515.6 261.899C506.4 257.699 498.4 251.999 491.6 244.799C484.8 237.599 479.5 229.199 475.7 219.599C471.9 209.999 470 199.799 470 188.999C470 177.999 471.9 167.699 475.7 158.099C479.5 148.499 484.8 140.099 491.6 132.899C498.4 125.699 506.4 120.099 515.6 116.099C525 111.899 535.2 109.799 546.2 109.799C556 109.799 564.7 111.299 572.3 114.299C579.9 117.299 586.6 121.099 592.4 125.699V113.699H628.4Z" fill="white"/>
<path d="M667.402 263.999V113.999H703.402V263.999H667.402ZM667.402 53.9992H703.402V89.9992H667.402V53.9992Z" fill="white"/>
<path d="M873.331 244.799C866.131 251.999 857.731 257.699 848.131 261.899C838.531 265.899 828.231 267.899 817.231 267.899C806.231 267.899 795.931 265.899 786.331 261.899C776.731 257.699 768.331 251.999 761.131 244.799C753.931 237.599 748.231 229.199 744.031 219.599C740.031 209.999 738.031 199.799 738.031 188.999C738.031 177.999 740.031 167.699 744.031 158.099C748.231 148.499 753.931 140.099 761.131 132.899C768.331 125.699 776.731 120.099 786.331 116.099C795.931 111.899 806.231 109.799 817.231 109.799C828.231 109.799 838.531 111.899 848.131 116.099C857.731 120.099 866.131 125.699 873.331 132.899L847.831 158.399C839.431 149.999 829.231 145.799 817.231 145.799C805.631 145.799 795.431 149.999 786.631 158.399C778.231 166.799 774.031 176.999 774.031 188.999C774.031 200.799 778.231 210.899 786.631 219.299C790.831 223.499 795.531 226.699 800.731 228.899C805.931 230.899 811.431 231.899 817.231 231.899C829.431 231.899 839.631 227.699 847.831 219.299L873.331 244.799Z" fill="white"/>
<path d="M1052.71 113.699V263.999H1016.71V188.999C1016.71 176.999 1012.51 166.799 1004.11 158.399C995.712 149.999 985.513 145.799 973.513 145.799C967.713 145.799 962.112 146.899 956.712 149.099C951.512 151.299 946.913 154.399 942.913 158.399C934.513 166.799 930.312 176.999 930.312 188.999C930.312 200.799 934.513 210.899 942.913 219.299C946.913 223.499 951.512 226.699 956.712 228.899C962.112 230.899 967.713 231.899 973.513 231.899C979.513 231.899 984.913 230.899 989.713 228.899L1002.61 260.999C993.412 265.599 982.713 267.899 970.513 267.899C959.513 267.899 949.312 265.899 939.913 261.899C930.712 257.699 922.712 251.999 915.913 244.799C909.113 237.599 903.812 229.199 900.013 219.599C896.213 209.999 894.312 199.799 894.312 188.999C894.312 177.999 896.213 167.699 900.013 158.099C903.812 148.499 909.113 140.099 915.913 132.899C922.712 125.699 930.712 120.099 939.913 116.099C949.312 111.899 959.513 109.799 970.513 109.799C980.312 109.799 989.013 111.299 996.612 114.299C1004.21 117.299 1010.91 121.099 1016.71 125.699V113.699H1052.71Z" fill="white"/>
<path d="M1245.31 53.6992V263.999H1209.31V188.999C1209.31 176.799 1205.11 166.599 1196.71 158.399C1188.31 149.999 1178.21 145.799 1166.41 145.799C1154.41 145.799 1144.21 149.999 1135.81 158.399C1127.41 166.799 1123.21 176.999 1123.21 188.999C1123.21 200.799 1127.41 210.899 1135.81 219.299C1139.81 223.499 1144.41 226.699 1149.61 228.899C1155.01 230.899 1160.61 231.899 1166.41 231.899C1172.21 231.899 1177.51 230.899 1182.31 228.899L1195.21 260.999C1186.01 265.599 1175.41 267.899 1163.41 267.899C1152.41 267.899 1142.21 265.899 1132.81 261.899C1123.61 257.699 1115.61 251.999 1108.81 244.799C1102.01 237.599 1096.71 229.199 1092.91 219.599C1089.11 209.999 1087.21 199.799 1087.21 188.999C1087.21 177.999 1089.11 167.699 1092.91 158.099C1096.71 148.499 1102.01 140.099 1108.81 132.899C1115.61 125.699 1123.61 120.099 1132.81 116.099C1142.21 111.899 1152.41 109.799 1163.41 109.799C1173.01 109.799 1181.61 111.299 1189.21 114.299C1196.81 117.299 1203.51 121.099 1209.31 125.699V53.6992H1245.31Z" fill="white"/>
<path d="M1319.72 206.999C1321.72 211.599 1324.62 215.699 1328.42 219.299C1332.62 223.499 1337.32 226.699 1342.52 228.899C1347.72 230.899 1353.22 231.899 1359.02 231.899C1367.22 231.899 1374.52 229.999 1380.92 226.199L1418.42 241.199C1411.22 249.599 1402.52 256.199 1392.32 260.999C1382.12 265.599 1371.02 267.899 1359.02 267.899C1348.02 267.899 1337.72 265.899 1328.12 261.899C1318.52 257.699 1310.12 251.999 1302.92 244.799C1295.72 237.599 1290.02 229.199 1285.82 219.599C1281.82 209.999 1279.82 199.799 1279.82 188.999C1279.82 177.999 1281.82 167.699 1285.82 158.099C1290.02 148.499 1295.72 140.099 1302.92 132.899C1310.12 125.699 1318.52 120.099 1328.12 116.099C1337.72 111.899 1348.02 109.799 1359.02 109.799C1370.02 109.799 1380.32 111.899 1389.92 116.099C1399.52 120.099 1407.92 125.699 1415.12 132.899C1422.32 140.099 1427.92 148.499 1431.92 158.099C1436.12 167.699 1438.22 177.999 1438.22 188.999C1438.22 195.399 1437.52 201.399 1436.12 206.999H1319.72ZM1359.02 145.799C1347.42 145.799 1337.22 149.999 1328.42 158.399C1324.62 162.199 1321.72 166.399 1319.72 170.999H1398.32C1396.32 166.399 1393.42 162.199 1389.62 158.399C1381.22 149.999 1371.02 145.799 1359.02 145.799Z" fill="white"/>
<defs>
<linearGradient id="paint0_linear_0_1" x1="65.3539" y1="106.128" x2="358.216" y2="283.112" gradientUnits="userSpaceOnUse">
<stop stop-color="#F8981E"/>
<stop offset="1" stop-color="#DF2111"/>
</linearGradient>
<linearGradient id="paint1_linear_0_1" x1="65.3539" y1="106.128" x2="358.216" y2="283.112" gradientUnits="userSpaceOnUse">
<stop stop-color="#F8981E"/>
<stop offset="1" stop-color="#DF2111"/>
</linearGradient>
<linearGradient id="paint2_linear_0_1" x1="65.3539" y1="106.128" x2="358.216" y2="283.112" gradientUnits="userSpaceOnUse">
<stop stop-color="#F8981E"/>
<stop offset="1" stop-color="#DF2111"/>
</linearGradient>
<linearGradient id="paint3_linear_0_1" x1="65.3539" y1="106.128" x2="358.216" y2="283.112" gradientUnits="userSpaceOnUse">
<stop stop-color="#F8981E"/>
<stop offset="1" stop-color="#DF2111"/>
</linearGradient>
<linearGradient id="paint4_linear_0_1" x1="65.3539" y1="106.128" x2="358.216" y2="283.112" gradientUnits="userSpaceOnUse">
<stop stop-color="#F8981E"/>
<stop offset="1" stop-color="#DF2111"/>
</linearGradient>
</defs>
</svg>
