<?xml version="1.0" encoding="UTF-8"?>
<svg width="256px" height="256px" viewBox="0 0 256 256" version="1.1" xmlns="http://www.w3.org/2000/svg" preserveAspectRatio="xMidYMid">
    <g>
        <path d="M128,0 C57.28,0 0,57.28 0,128 C0,198.72 57.28,256 128,256 C198.72,256 256,198.72 256,128 C256,57.28 198.72,0 128,0 Z" fill="#00435B"></path>
        <path d="M206.72,99.84 L169.6,137.28 L169.6,75.52 C169.6,73.6 167.68,71.68 165.76,71.68 L153.6,71.68 C151.68,71.68 149.76,73.6 149.76,75.52 L149.76,169.6 C149.76,171.52 151.68,173.44 153.6,173.44 L165.76,173.44 C167.68,173.44 169.6,171.52 169.6,169.6 L169.6,157.44 L206.72,120 C208.64,118.08 208.64,101.76 206.72,99.84 Z M102.4,71.68 L90.24,71.68 C88.32,71.68 86.4,73.6 86.4,75.52 L86.4,169.6 C86.4,171.52 88.32,173.44 90.24,173.44 L102.4,173.44 C104.32,173.44 106.24,171.52 106.24,169.6 L106.24,75.52 C106.24,73.6 104.32,71.68 102.4,71.68 Z M49.28,71.68 L49.28,173.44 L61.44,173.44 C63.36,173.44 65.28,171.52 65.28,169.6 L65.28,75.52 C65.28,73.6 63.36,71.68 61.44,71.68 L49.28,71.68 Z" fill="#FFFFFF"></path>
    </g>
</svg>
