<svg width="64" height="64" viewBox="0 0 64 64" fill="none" xmlns="http://www.w3.org/2000/svg">
<g clip-path="url(#clip0_93_159)">
<path d="M32 32C32 29.1711 33.1497 26.458 35.1501 24.4576C37.1505 22.4572 39.8636 21.3334 42.6925 21.3334C45.5215 21.3334 48.2346 22.4572 50.235 24.4576C52.2354 26.458 53.3592 29.1711 53.3592 32C53.3592 34.829 52.2354 37.5421 50.235 39.5425C48.2346 41.5429 45.5215 42.6667 42.6925 42.6667C39.8636 42.6667 37.1505 41.5429 35.1501 39.5425C33.1497 37.5421 32 34.829 32 32Z" fill="#1ABCFE"/>
<path d="M10.6925 53.3333C10.6925 50.5043 11.8163 47.7912 13.8167 45.7908C15.8171 43.7904 18.5302 42.6666 21.3592 42.6666H32V53.3333C32 56.1623 30.902 58.8754 28.9016 60.8758C26.9013 62.8762 24.1881 64 21.3592 64C18.5302 64 15.8171 62.8762 13.8167 60.8758C11.8163 58.8754 10.6925 56.1623 10.6925 53.3333Z" fill="#0ACF83"/>
<path d="M32 0V21.3333H42.6925C45.5215 21.3333 48.2346 20.2095 50.235 18.2091C52.2354 16.2087 53.3592 13.4956 53.3592 10.6667C53.3592 7.83769 52.2354 5.12458 50.235 3.12419C48.2346 1.12381 45.5215 0 42.6925 0L32 0Z" fill="#FF7262"/>
<path d="M10.6925 10.6667C10.6925 13.4956 11.8163 16.2087 13.8167 18.2091C15.8171 20.2095 18.5302 21.3333 21.3592 21.3333H32V0H21.3592C18.5302 0 15.8171 1.12381 13.8167 3.12419C11.8163 5.12458 10.6925 7.83769 10.6925 10.6667Z" fill="#F24E1E"/>
<path d="M10.6925 32C10.6925 34.829 11.8163 37.5421 13.8167 39.5425C15.8171 41.5429 18.5302 42.6667 21.3592 42.6667H32V21.3334H21.3592C18.5302 21.3334 15.8171 22.4572 13.8167 24.4576C11.8163 26.458 10.6925 29.1711 10.6925 32Z" fill="#A259FF"/>
</g>
<defs>
<clipPath id="clip0_93_159">
<rect width="64" height="64" fill="white"/>
</clipPath>
</defs>
</svg>
