<svg width="64" height="64" viewBox="0 0 64 64" fill="none" xmlns="http://www.w3.org/2000/svg">
<g clip-path="url(#clip0_93_143)">
<path d="M37.0324 7.13325C34.3344 3.94632 32.0112 0.709589 31.5366 0.0373468C31.4866 -0.0124489 31.4117 -0.0124489 31.3617 0.0373468C30.8871 0.709589 28.5638 3.94632 25.8659 7.13325C2.7085 36.5376 29.5131 56.3813 29.5131 56.3813L29.7379 56.5306C29.9378 59.5932 30.4374 64 30.4374 64H31.4366H32.4359C32.4359 64 32.9355 59.618 33.1354 56.5306L33.3602 56.3565C33.3852 56.3565 60.1898 36.5376 37.0324 7.13325ZM31.4366 55.933C31.4366 55.933 30.2376 54.9123 29.9128 54.3893V54.3397L31.3617 22.3209C31.3617 22.2213 31.5116 22.2213 31.5116 22.3209L32.9605 54.3397V54.3893C32.6357 54.9123 31.4366 55.933 31.4366 55.933Z" fill="#00684A"/>
</g>
<defs>
<clipPath id="clip0_93_143">
<rect width="64" height="64" fill="white"/>
</clipPath>
</defs>
</svg>
